<svg id="Mask" xmlns="http://www.w3.org/2000/svg" viewBox="0 0 200 200"><style>.st0{fill:#fff}</style><path class="st0" d="M53 162.4c-.8 0-1.6-.1-2.3-.3-2.8-.7-4.7-2.9-5.4-6-1.5-7.4 4.3-21.3 23.2-39.6 1-3.5 2-7.4 3.1-11.1-4.5 5.1-10.2 9.2-16.8 9.2-5 0-7.3-2.3-8.5-4.3-3-5.2-.2-13.9 2.7-20.1C36 94.4 9.6 102.9-.9 106c-1.7.5-3.5-.5-4-2.2-.5-1.7.5-3.5 2.2-4 14-4.1 56.7-18 57.1-18.1 1.3-.4 2.6 0 3.5 1 .8 1 .9 2.5.3 3.6-3.7 6.3-8.3 17.2-6.3 20.7.2.3.6 1.1 2.9 1.1 10.6 0 20-17.8 22.7-24.6.6-1.6 2.4-2.4 4-1.9s2.5 2.2 2.1 3.8c0 .2-3 11.3-6.1 22.9 4.3-3.7 9-7.5 14.3-11.4.3-.2.6-.5 1-.7-.5-.2-1.1-.5-1.7-.6-.2-.1-.4-.1-.6-.2-1.7-.5-2.6-2.3-2.2-3.9.5-1.7 2.2-2.7 3.9-2.2.2.1.4.1.6.2 1.3.3 2.5.6 3.8.8 2.4-7.1 5.3-15.3 8.7-24.6.5-1.2.8-2.3 1.1-3 5.3-14.7 10.8-23 16.3-24.7 2.4-.7 4.7-.3 6.8 1.2 1.1.8 2.3 2.3 2.4 5.3.1 8.9-12.1 30.5-24.2 45.4 10.4-2 18.7-7.6 18.8-7.7 1.2-.9 2.9-.7 4 .3s1.3 2.7.6 4c-3.6 6.1-8 16.7-6 20.4.2.3.8 1.4 3.8 1.4 10.9 0 18.9-15.5 21.6-23 .2-.6.4-1.1.5-1.5.6-1.6 2.4-2.5 4-1.9 1.6.6 2.5 2.3 2 4 0 .1-.2.5-.4 1.1-2.4 7.1-4.4 18-1.7 21 .8.9 2.3 1 4.6.5 14.3-3.6 28.9-8.1 41.2-12.8 1.6-.6 3.5.2 4.1 1.8.6 1.6-.2 3.5-1.8 4.1-12.5 4.8-27.4 9.4-42 13.1-5.9 1.5-9.2-.5-10.9-2.4-1.9-2.1-2.7-5-2.9-8.2-4.5 5.7-10.7 10.6-18.4 10.6-5.5 0-8.1-2.5-9.3-4.6-2.7-4.7-.9-11.8 1.5-17.6-4.9 2.1-11.4 4.2-18.4 4.6 1 1.7 1.8 3.6 2.4 5.7 3.5 13.2-3.6 32.2-10.1 38.6-2.8 2.8-5.2 2.9-6.8 2.4-1.2-.4-2.3-1.2-2.9-2.5-1.6-3.1-1.6-10.3 6.5-36.1-6.9 5.3-12.7 10.3-17.5 14.9-.5 1.8-1 3.5-1.4 5-.3 1.1-.7 3-1.2 5.1-2.9 13.2-6.4 26.5-13.5 30.9-1.6.8-3.3 1.3-5.1 1.3zm12.2-33.2c-12 13.7-14.3 22.6-13.7 25.7.2.9.5 1 .6 1 .9.2 1.7.1 2.5-.4 5.5-3.3 8.9-18.5 10.6-26.3zM98.7 104c-.3.9-.6 1.8-.8 2.7-6 18.9-7.1 26.6-7.2 29.7 3.4-3.6 9-15.7 8.7-26.8 0-2.1-.3-3.9-.7-5.6zM125 44c-.1 0-.2 0-.4.1-2.4.8-7.1 6.7-12.2 20.8-.3.7-.6 1.7-1.1 3-1.1 3.1-2.8 7.5-4.6 12.7 2.8-3.8 5.6-7.9 8.2-12.2 8.8-14.4 10.8-22.3 10.5-24.3-.1-.1-.3-.1-.4-.1z"/></svg>