<svg width="112" height="30" viewBox="0 0 112 30" fill="none" xmlns="http://www.w3.org/2000/svg">
<g clip-path="url(#clip0)">
<path d="M97.1949 0.0131119C92.8076 0.0131119 88.8672 1.94493 86.1575 5.01311V1.10577C86.1553 0.616259 85.6609 0.66215 85.6609 0.66215H79.0777C78.8359 0.66215 78.6373 0.861014 78.6373 1.10795V11.0664C78.6373 11.3134 78.4408 11.5122 78.1968 11.5122H71.5532C71.3114 11.5122 71.1127 11.3134 71.1127 11.0664V1.10795C71.1127 0.863199 70.9163 0.66215 70.6744 0.66215H64.0244C63.7804 0.66215 63.5839 0.861014 63.5839 1.10795V6.76136C62.4223 5.03934 61.1959 3.68663 59.8961 2.71635C57.452 0.891608 54.4055 0 50.722 0C46.5161 0 42.9103 1.41827 39.9048 4.21766C37.7975 6.18444 36.4028 8.45498 35.7313 11.0424C35.6687 11.2806 35.429 11.4751 35.1872 11.4751H27.1704C26.9285 11.4751 26.7321 11.2762 26.7321 11.0293V7.76661C26.7321 7.51967 26.9285 7.3208 27.1704 7.3208H36.2387C36.4826 7.3208 36.6791 7.12194 36.6791 6.875L36.6618 1.10577C36.6618 0.861014 36.4632 0.649038 36.2214 0.649038H0.44046C0.19648 0.653409 0 0.852273 0 1.09703V6.87719C0 7.12413 0.19648 7.32299 0.44046 7.32299H6.18372C6.42554 7.32299 6.62418 7.52185 6.62418 7.76879V28.9117C6.62418 29.1587 6.82066 29.3575 7.06464 29.3575H13.6759C13.9198 29.3575 14.1163 29.1587 14.1163 28.9117V7.76661C14.1163 7.51967 14.3128 7.3208 14.5568 7.3208H18.916C19.1579 7.3208 19.3565 7.51967 19.3565 7.76661V28.927C19.3565 29.1718 19.553 29.3706 19.7948 29.3706H36.2214C36.4632 29.3706 36.6618 29.1718 36.6618 28.927V23.0857C36.6618 22.8409 36.4654 22.6399 36.2214 22.6399H27.1725C26.9307 22.6399 26.7342 22.441 26.7342 22.1941V18.4856C26.7342 18.2386 26.9307 18.0398 27.1725 18.0398H35.1181C35.3599 18.0398 35.5952 18.2365 35.6492 18.4747C36.2646 21.2522 37.627 23.6801 39.7494 25.743C42.7139 28.5795 46.3606 30 50.6875 30C54.3321 30 57.3376 29.1499 59.7407 27.406C61.1117 26.3855 62.3964 24.976 63.5904 23.1665V28.9095C63.5904 29.1565 63.7869 29.3553 64.0308 29.3553H70.6809C70.9227 29.3553 71.1192 29.1565 71.1192 28.9095V18.9314C71.1192 18.6866 71.3157 18.4878 71.5597 18.4878H78.2055C78.4473 18.4878 78.6459 18.6866 78.6459 18.9314V28.9095C78.6459 29.1565 78.8424 29.3553 79.0864 29.3553H85.8315C85.8315 29.3553 86.1553 29.3903 86.164 29.0538V24.9825C88.8758 28.0507 92.8141 29.9825 97.2014 29.9825C105.378 29.9825 112.009 23.2736 112.009 14.9956C112 6.72203 105.371 0.0131119 97.1949 0.0131119ZM63.5817 19.823L57.0979 19.8711C56.8561 19.8733 56.5452 20.0371 56.3897 20.2273C54.9971 21.9449 53.0431 22.8475 50.6378 22.8475C48.4334 22.8475 46.6327 22.0149 45.1493 20.5135C43.666 19.0144 42.9449 17.1482 42.9449 14.9191C42.9449 12.771 43.7071 10.9878 45.1882 9.52797C46.7104 8.06818 48.5154 7.33829 50.6357 7.33829C53.015 7.33829 55.0036 8.27579 56.5668 10.1158C56.7244 10.3038 57.0418 10.4611 57.2858 10.4611H63.5774V19.823H63.5817ZM107.677 15.0634H103.972C103.614 15.0634 103.325 15.3584 103.325 15.7212V22.1941C103.325 22.5568 103.033 22.8497 102.675 22.8497H92.2937C91.9353 22.8497 91.646 22.5546 91.646 22.1941V15.7212C91.646 15.3584 91.3567 15.0634 90.9982 15.0634H87.5933C87.2349 15.0634 87.1442 14.8514 87.3904 14.587L97.1884 4.15428C97.4346 3.88986 97.8362 3.88986 98.0823 4.15428L107.88 14.587C108.127 14.8514 108.036 15.0634 107.677 15.0634Z" fill="#0092DD"/>
</g>
<defs>
<clipPath id="clip0">
<rect width="112" height="30" fill="white"/>
</clipPath>
</defs>
</svg>
